# xmcd
#
# Track frame offsets:
#	150
#	24021
#	39148
#	54419
#	70789
#	87379
#	103741
#	122950
#	141954
#	159797
#	177047
#	195123
#	211869
#	227317
#	243237
#
# Disc length: 3474 seconds
#
# Revision: 5
# Processed by: cddbd v1.5.2PL0 Copyright (c) Steve Scherf et al.
# Submitted via: EasyCDDAExtractor 15.3.0.1
#
DISCID=ac0d900f
DTITLE=RBD - Live In Hollywood
DYEAR=2006
DGENRE=Latin
TTITLE0=Tras De Mi
TTITLE1=Me Voy
TTITLE2=Nuestro Amor
TTITLE3=Asi Soy Yo
TTITLE4=Que Fue Del Amor
TTITLE5=A Tu Lado
TTITLE6=No Pares
TTITLE7=Fuera
TTITLE8=Solo Para Ti
TTITLE9=Este Corazon
TTITLE10=Aun Hay Algo
TTITLE11=Que Hay Detras
TTITLE12=Feliz Cumpleaños
TTITLE13=Solo Quedate En Silencio (Hollywood Version)
TTITLE14=No Pares (Studio Version)
EXTD=
EXTT0=
EXTT1=
EXTT2=
EXTT3=
EXTT4=
EXTT5=
EXTT6=
EXTT7=
EXTT8=
EXTT9=
EXTT10=
EXTT11=
EXTT12=
EXTT13=
EXTT14=
PLAYORDER=
